<?xml version="1.0" encoding="utf-8"?>
<!-- Generator: Adobe Illustrator 26.0.1, SVG Export Plug-In . SVG Version: 6.00 Build 0)  -->
<svg version="1.1" id="Layer_1" xmlns="http://www.w3.org/2000/svg" xmlns:xlink="http://www.w3.org/1999/xlink" x="0px" y="0px"
	 viewBox="0 0 1864.53 1161.51" style="enable-background:new 0 0 1864.53 1161.51;" xml:space="preserve">
<style type="text/css">
	.st0{fill:#FAFAFF;}
	.st1{fill:#0287DE;}
	.st2{fill:#FFFFFF;}
	.st3{fill:#333333;}
	.st4{fill:#EFEDF4;}
</style>
<rect class="st0" width="1864.53" height="1161.51"/>
<g>
	<path class="st4" d="M1088.85,344.61H775.67c-52.61,0-95.25,42.65-95.25,95.25v281.79c0,52.61,42.65,95.25,95.25,95.25h313.18
		c52.61,0,95.25-42.65,95.25-95.25V439.86C1184.11,387.25,1141.46,344.61,1088.85,344.61z"/>
	<g>
		<path class="st1" d="M977.64,565.76H877.09c6.28-27.73,28.47-41.03,51.38-41.03C951.76,524.73,974.68,538.41,977.64,565.76z"/>
		<path class="st1" d="M1087.83,582.76c0,88.46-71.71,160.18-160.17,160.18c-81.96,0-149.54-61.55-159.03-140.95h63.78
			c8.49,51.87,51.35,80.58,98.66,80.58c34,0,61.73-14.05,77.62-34.01l-22.55-24.02c-14.05,12.2-30.68,17.37-49.53,17.37
			c-28.83,0-51.76-13.67-58.78-39.92h143.79c10.72-84.65-44.73-119.03-93.52-119.03c-44.67,0-88.42,28.99-96.05,82.8h-63.68
			c8.49-80.47,76.56-143.17,159.28-143.17C1016.11,422.59,1087.83,494.3,1087.83,582.76z"/>
	</g>
</g>
</svg>
