<?xml version="1.0" encoding="utf-8"?>
<!-- Generator: Adobe Illustrator 26.0.1, SVG Export Plug-In . SVG Version: 6.00 Build 0)  -->
<svg version="1.1" id="Layer_1" xmlns="http://www.w3.org/2000/svg" xmlns:xlink="http://www.w3.org/1999/xlink" x="0px" y="0px"
	 viewBox="0 0 1864.53 1161.51" style="enable-background:new 0 0 1864.53 1161.51;" xml:space="preserve">
<style type="text/css">
	.st0{fill:#FAFAFF;}
	.st1{fill:#0287DE;}
	.st2{fill:#FFFFFF;}
	.st3{fill:#333333;}
	.st4{fill:#EFEDF4;}
</style>
<g>
	<path class="st3" d="M794.05,629.2c-8.26,0-15.52-1.87-21.77-5.61c-6.25-3.74-11.09-8.8-14.54-15.2
		c-3.45-6.39-5.17-13.48-5.17-21.25c0-8.07,1.77-15.23,5.31-21.47c3.54-6.25,8.31-11.19,14.32-14.83c6-3.64,12.79-5.46,20.37-5.46
		c6.3,0,11.83,1.03,16.6,3.1c4.77,2.07,8.83,4.92,12.18,8.56c3.34,3.64,5.9,7.8,7.67,12.47c1.77,4.67,2.66,9.72,2.66,15.13
		c0,1.48-0.07,2.93-0.22,4.35c-0.15,1.43-0.42,2.73-0.81,3.91h-61.99v-14.91h51.07l-9.3,6.94c0.98-4.52,0.81-8.56-0.52-12.1
		c-1.33-3.54-3.49-6.35-6.49-8.41c-3-2.07-6.62-3.1-10.85-3.1c-4.04,0-7.63,1.03-10.77,3.1c-3.15,2.07-5.53,5.02-7.16,8.86
		c-1.62,3.84-2.24,8.51-1.84,14.02c-0.39,4.92,0.27,9.28,1.99,13.06c1.72,3.79,4.28,6.72,7.67,8.78s7.31,3.1,11.73,3.1
		s8.19-0.93,11.29-2.8c3.1-1.87,5.53-4.38,7.31-7.53l15.64,7.68c-1.58,3.84-4.04,7.23-7.38,10.18c-3.35,2.95-7.33,5.26-11.96,6.94
		C804.48,628.36,799.46,629.2,794.05,629.2z"/>
	<path class="st3" d="M880.83,629.2c-7.77,0-14.74-1.85-20.88-5.54c-6.15-3.69-11-8.73-14.54-15.13c-3.54-6.4-5.31-13.48-5.31-21.25
		c0-7.87,1.79-14.96,5.39-21.25c3.59-6.3,8.44-11.31,14.54-15.05c6.1-3.74,12.99-5.61,20.66-5.61c6.1,0,11.54,1.21,16.31,3.62
		c4.77,2.41,8.54,5.78,11.29,10.11l-2.95,3.98V515.7h19.33v111.73h-18.3v-15.5l2.07,3.84c-2.76,4.43-6.59,7.77-11.51,10.04
		C892,628.07,886.64,629.2,880.83,629.2z M882.9,611.49c4.33,0,8.19-1.03,11.59-3.1c3.39-2.07,6.05-4.92,7.97-8.56
		c1.92-3.64,2.88-7.82,2.88-12.55c0-4.62-0.96-8.76-2.88-12.4c-1.92-3.64-4.58-6.49-7.97-8.56s-7.26-3.1-11.59-3.1
		c-4.33,0-8.22,1.03-11.66,3.1c-3.45,2.07-6.12,4.92-8.04,8.56c-1.92,3.64-2.88,7.77-2.88,12.4c0,4.72,0.96,8.91,2.88,12.55
		c1.92,3.64,4.6,6.49,8.04,8.56C874.68,610.46,878.57,611.49,882.9,611.49z"/>
	<path class="st3" d="M978.83,659.9c-6,0-11.56-0.98-16.68-2.95c-5.12-1.97-9.52-4.7-13.21-8.19c-3.69-3.49-6.37-7.6-8.04-12.32
		l18.01-6.79c1.18,3.74,3.52,6.76,7.01,9.08c3.49,2.31,7.75,3.47,12.77,3.47c3.93,0,7.4-0.74,10.41-2.21c3-1.48,5.36-3.62,7.08-6.42
		c1.72-2.8,2.58-6.17,2.58-10.11v-18.3l3.54,4.43c-2.76,4.82-6.42,8.46-11,10.92c-4.58,2.46-9.87,3.69-15.87,3.69
		c-7.38,0-14.02-1.72-19.92-5.17c-5.9-3.44-10.55-8.17-13.95-14.17c-3.39-6-5.09-12.74-5.09-20.22c0-7.57,1.7-14.32,5.09-20.22
		c3.4-5.9,7.99-10.55,13.8-13.95c5.8-3.39,12.4-5.09,19.78-5.09c6,0,11.27,1.25,15.79,3.76c4.53,2.51,8.31,6.13,11.37,10.85
		l-2.51,4.87v-17.71h18.3v76.31c0,6.99-1.7,13.23-5.09,18.75c-3.39,5.51-8.02,9.84-13.87,12.99
		C993.27,658.32,986.51,659.9,978.83,659.9z M977.95,606.32c4.13,0,7.75-0.91,10.85-2.73c3.1-1.82,5.54-4.35,7.31-7.6
		c1.77-3.25,2.66-6.99,2.66-11.22c0-4.13-0.91-7.82-2.73-11.07c-1.82-3.25-4.28-5.8-7.38-7.67c-3.1-1.87-6.67-2.8-10.7-2.8
		c-4.04,0-7.67,0.94-10.92,2.8c-3.25,1.87-5.78,4.43-7.6,7.67c-1.82,3.25-2.73,6.94-2.73,11.07c0,4.13,0.91,7.82,2.73,11.07
		c1.82,3.25,4.33,5.81,7.53,7.67C970.15,605.39,973.82,606.32,977.95,606.32z"/>
	<path class="st3" d="M1071.23,629.2c-8.26,0-15.52-1.87-21.77-5.61c-6.25-3.74-11.09-8.8-14.54-15.2
		c-3.45-6.39-5.17-13.48-5.17-21.25c0-8.07,1.77-15.23,5.31-21.47c3.54-6.25,8.31-11.19,14.32-14.83c6-3.64,12.79-5.46,20.37-5.46
		c6.3,0,11.83,1.03,16.6,3.1c4.77,2.07,8.83,4.92,12.18,8.56c3.34,3.64,5.9,7.8,7.67,12.47c1.77,4.67,2.66,9.72,2.66,15.13
		c0,1.48-0.07,2.93-0.22,4.35c-0.15,1.43-0.42,2.73-0.81,3.91h-61.99v-14.91h51.07l-9.3,6.94c0.98-4.52,0.81-8.56-0.52-12.1
		c-1.33-3.54-3.49-6.35-6.49-8.41c-3-2.07-6.62-3.1-10.85-3.1c-4.04,0-7.63,1.03-10.77,3.1c-3.15,2.07-5.53,5.02-7.16,8.86
		c-1.62,3.84-2.24,8.51-1.84,14.02c-0.39,4.92,0.27,9.28,1.99,13.06c1.72,3.79,4.28,6.72,7.67,8.78s7.31,3.1,11.73,3.1
		s8.19-0.93,11.29-2.8c3.1-1.87,5.53-4.38,7.31-7.53l15.64,7.68c-1.58,3.84-4.04,7.23-7.38,10.18c-3.35,2.95-7.33,5.26-11.96,6.94
		C1081.65,628.36,1076.64,629.2,1071.23,629.2z"/>
	<path class="st3" d="M1120.52,538.14v-20.66h19.48v20.66H1120.52z M1120.52,627.43v-80.29h19.48v80.29H1120.52z"/>
	<path class="st3" d="M1194.17,629.2c-7.77,0-14.88-1.82-21.33-5.46c-6.45-3.64-11.59-8.61-15.42-14.91
		c-3.84-6.3-5.76-13.48-5.76-21.55c0-8.07,1.92-15.25,5.76-21.55c3.84-6.3,8.95-11.27,15.35-14.91c6.39-3.64,13.53-5.46,21.4-5.46
		c7.97,0,15.15,1.82,21.55,5.46c6.4,3.64,11.49,8.59,15.28,14.83c3.79,6.25,5.68,13.46,5.68,21.62c0,8.07-1.92,15.25-5.76,21.55
		c-3.84,6.3-8.95,11.27-15.35,14.91C1209.18,627.38,1202.04,629.2,1194.17,629.2z M1194.17,611.49c4.43,0,8.29-1.03,11.59-3.1
		c3.29-2.07,5.9-4.94,7.82-8.63s2.88-7.85,2.88-12.47c0-4.62-0.96-8.76-2.88-12.4c-1.92-3.64-4.53-6.49-7.82-8.56
		c-3.3-2.07-7.16-3.1-11.59-3.1c-4.33,0-8.17,1.03-11.51,3.1c-3.35,2.07-5.98,4.92-7.9,8.56c-1.92,3.64-2.88,7.77-2.88,12.4
		c0,4.63,0.96,8.78,2.88,12.47s4.55,6.57,7.9,8.63C1186,610.46,1189.84,611.49,1194.17,611.49z"/>
	<path class="st3" d="M1283.61,628.31c-9.05,0-16.09-2.48-21.11-7.45c-5.02-4.97-7.53-11.98-7.53-21.03v-35.42h-13.73v-17.27h1.48
		c3.93,0,6.96-1.03,9.08-3.1c2.12-2.07,3.17-5.07,3.17-9v-6.2h19.48v18.3h18.45v17.27h-18.45v34.39c0,2.66,0.47,4.92,1.4,6.79
		c0.93,1.87,2.41,3.3,4.43,4.28c2.01,0.98,4.6,1.48,7.75,1.48c0.69,0,1.5-0.05,2.44-0.15c0.93-0.1,1.84-0.2,2.73-0.29v16.53
		c-1.38,0.2-2.95,0.39-4.72,0.59C1286.71,628.22,1285.09,628.31,1283.61,628.31z"/>
</g>
<g>
	<path class="st1" d="M656.6,571.23h-56.35c3.52-15.54,15.95-23,28.8-23C642.1,548.23,654.94,555.89,656.6,571.23z"/>
	<path class="st1" d="M718.36,580.75c0,49.58-40.19,89.77-89.77,89.77c-45.93,0-83.81-34.5-89.13-79h35.74
		c4.76,29.07,28.78,45.16,55.3,45.16c19.06,0,34.59-7.87,43.51-19.06l-12.64-13.46c-7.87,6.84-17.19,9.74-27.76,9.74
		c-16.16,0-29.01-7.66-32.94-22.37h80.59c6.01-47.44-25.07-66.71-52.41-66.71c-25.03,0-49.55,16.25-53.83,46.41h-35.69
		c4.76-45.1,42.91-80.24,89.27-80.24C678.17,490.98,718.36,531.17,718.36,580.75z"/>
</g>
</svg>
